<?xml version="1.0" encoding="UTF-8" standalone="no"?>
<!DOCTYPE svg PUBLIC "-//W3C//DTD SVG 1.1//EN"
 "http://www.w3.org/Graphics/SVG/1.1/DTD/svg11.dtd">
<!-- Generated by graphviz version 2.47.0 (20210316.0004)
 -->
<!-- Title: dependencies Pages: 1 -->
<svg width="504pt" height="287pt"
 viewBox="0.00 0.00 504.00 287.00" xmlns="http://www.w3.org/2000/svg" xmlns:xlink="http://www.w3.org/1999/xlink">
<g id="graph0" class="graph" transform="scale(1 1) rotate(0) translate(4 283)">
<title>dependencies</title>
<polygon fill="white" stroke="transparent" points="-4,4 -4,-283 500,-283 500,4 -4,4"/>
<text text-anchor="start" x="227.01" y="-42.4" font-family="Times-12" font-weight="bold" font-size="14.00">Legend</text>
<polygon fill="#ffffb3" stroke="transparent" points="14,-10 14,-30 34,-30 34,-10 14,-10"/>
<text text-anchor="start" x="37.63" y="-15.4" font-family="Times-12" font-size="14.00"> &#160;Declarations</text>
<polygon fill="#8dd3c7" stroke="transparent" points="127,-10 127,-30 147,-30 147,-10 127,-10"/>
<text text-anchor="start" x="150.73" y="-15.4" font-family="Times-12" font-size="14.00"> &#160;Module</text>
<polygon fill="#80b1d3" stroke="transparent" points="213,-10 213,-30 233,-30 233,-10 213,-10"/>
<text text-anchor="start" x="236.78" y="-15.4" font-family="Times-12" font-size="14.00"> &#160;Bootstrap</text>
<polygon fill="#fdb462" stroke="transparent" points="310,-10 310,-30 330,-30 330,-10 310,-10"/>
<text text-anchor="start" x="333.67" y="-15.4" font-family="Times-12" font-size="14.00"> &#160;Providers</text>
<polygon fill="#fb8072" stroke="transparent" points="406,-10 406,-30 426,-30 426,-10 406,-10"/>
<text text-anchor="start" x="429.73" y="-15.4" font-family="Times-12" font-size="14.00"> &#160;Exports</text>
<g id="clust1" class="cluster">
<title>cluster_AppModule</title>
<polygon fill="none" stroke="black" stroke-dasharray="1,5" points="12,-146 12,-271 484,-271 484,-146 12,-146"/>
</g>
<g id="clust3" class="cluster">
<title>cluster_AppModule_imports</title>
<polygon fill="none" stroke="black" points="158,-154 158,-206 476,-206 476,-154 158,-154"/>
</g>
<g id="clust6" class="cluster">
<title>cluster_AppModule_providers</title>
<polygon fill="none" stroke="black" points="20,-154 20,-206 150,-206 150,-154 20,-154"/>
</g>
<g id="clust13" class="cluster">
<title>cluster_PostModule</title>
<polygon fill="none" stroke="black" stroke-dasharray="1,5" points="109,-70 109,-138 255,-138 255,-70 109,-70"/>
</g>
<g id="clust18" class="cluster">
<title>cluster_PostModule_providers</title>
<polygon fill="none" stroke="black" points="117,-78 117,-130 247,-130 247,-78 117,-78"/>
</g>
<g id="clust19" class="cluster">
<title>cluster_UserModule</title>
<polygon fill="none" stroke="black" stroke-dasharray="1,5" points="263,-70 263,-138 411,-138 411,-70 263,-70"/>
</g>
<g id="clust24" class="cluster">
<title>cluster_UserModule_providers</title>
<polygon fill="none" stroke="black" points="271,-78 271,-130 403,-130 403,-78 271,-78"/>
</g>
<!-- HealthModule -->
<g id="node1" class="node">
<title>HealthModule</title>
<polygon fill="#8dd3c7" stroke="black" points="468.37,-198 465.37,-202 444.37,-202 441.37,-198 371.63,-198 371.63,-162 468.37,-162 468.37,-198"/>
<text text-anchor="middle" x="420" y="-175.8" font-family="Times,serif" font-size="14.00">HealthModule</text>
</g>
<!-- AppModule -->
<g id="node4" class="node">
<title>AppModule</title>
<polygon fill="#8dd3c7" stroke="black" points="300.66,-263 297.66,-267 276.66,-267 273.66,-263 217.34,-263 217.34,-227 300.66,-227 300.66,-263"/>
<text text-anchor="middle" x="259" y="-240.8" font-family="Times,serif" font-size="14.00">AppModule</text>
</g>
<!-- HealthModule&#45;&gt;AppModule -->
<g id="edge1" class="edge">
<title>HealthModule&#45;&gt;AppModule</title>
<path fill="none" stroke="black" d="M420,-198.11C420,-217.34 420,-245 420,-245 420,-245 310.88,-245 310.88,-245"/>
<polygon fill="black" stroke="black" points="310.88,-241.5 300.88,-245 310.88,-248.5 310.88,-241.5"/>
</g>
<!-- PostModule -->
<g id="node2" class="node">
<title>PostModule</title>
<polygon fill="#8dd3c7" stroke="black" points="249.67,-198 246.67,-202 225.67,-202 222.67,-198 166.33,-198 166.33,-162 249.67,-162 249.67,-198"/>
<text text-anchor="middle" x="208" y="-175.8" font-family="Times,serif" font-size="14.00">PostModule</text>
</g>
<!-- PostModule&#45;&gt;AppModule -->
<g id="edge2" class="edge">
<title>PostModule&#45;&gt;AppModule</title>
<path fill="none" stroke="black" d="M233.5,-198.11C233.5,-198.11 233.5,-216.99 233.5,-216.99"/>
<polygon fill="black" stroke="black" points="230,-216.99 233.5,-226.99 237,-216.99 230,-216.99"/>
</g>
<!-- UserModule -->
<g id="node3" class="node">
<title>UserModule</title>
<polygon fill="#8dd3c7" stroke="black" points="353.98,-198 350.98,-202 329.98,-202 326.98,-198 268.02,-198 268.02,-162 353.98,-162 353.98,-198"/>
<text text-anchor="middle" x="311" y="-175.8" font-family="Times,serif" font-size="14.00">UserModule</text>
</g>
<!-- UserModule&#45;&gt;AppModule -->
<g id="edge3" class="edge">
<title>UserModule&#45;&gt;AppModule</title>
<path fill="none" stroke="black" d="M284.42,-198.11C284.42,-198.11 284.42,-216.99 284.42,-216.99"/>
<polygon fill="black" stroke="black" points="280.92,-216.99 284.42,-226.99 287.92,-216.99 280.92,-216.99"/>
</g>
<!-- AppService -->
<g id="node5" class="node">
<title>AppService</title>
<ellipse fill="#fdb462" stroke="black" cx="85" cy="-180" rx="56.74" ry="18"/>
<text text-anchor="middle" x="85" y="-175.8" font-family="Times,serif" font-size="14.00">AppService</text>
</g>
<!-- AppService&#45;&gt;AppModule -->
<g id="edge4" class="edge">
<title>AppService&#45;&gt;AppModule</title>
<path fill="none" stroke="black" d="M85,-198.11C85,-217.34 85,-245 85,-245 85,-245 207.32,-245 207.32,-245"/>
<polygon fill="black" stroke="black" points="207.32,-248.5 217.32,-245 207.32,-241.5 207.32,-248.5"/>
</g>
<!-- PostService -->
<g id="node6" class="node">
<title>PostService</title>
<ellipse fill="#fdb462" stroke="black" cx="182" cy="-104" rx="56.76" ry="18"/>
<text text-anchor="middle" x="182" y="-99.8" font-family="Times,serif" font-size="14.00">PostService</text>
</g>
<!-- PostService&#45;&gt;PostModule -->
<g id="edge5" class="edge">
<title>PostService&#45;&gt;PostModule</title>
<path fill="none" stroke="black" d="M202.4,-120.87C202.4,-120.87 202.4,-151.85 202.4,-151.85"/>
<polygon fill="black" stroke="black" points="198.9,-151.85 202.4,-161.85 205.9,-151.85 198.9,-151.85"/>
</g>
<!-- UserService -->
<g id="node7" class="node">
<title>UserService</title>
<ellipse fill="#fdb462" stroke="black" cx="337" cy="-104" rx="58.44" ry="18"/>
<text text-anchor="middle" x="337" y="-99.8" font-family="Times,serif" font-size="14.00">UserService</text>
</g>
<!-- UserService&#45;&gt;UserModule -->
<g id="edge6" class="edge">
<title>UserService&#45;&gt;UserModule</title>
<path fill="none" stroke="black" d="M316.38,-120.87C316.38,-120.87 316.38,-151.85 316.38,-151.85"/>
<polygon fill="black" stroke="black" points="312.88,-151.85 316.38,-161.85 319.88,-151.85 312.88,-151.85"/>
</g>
</g>
</svg>
